<svg width="1289" height="1433" viewBox="0 0 1289 1433" fill="none" xmlns="http://www.w3.org/2000/svg">
<path fill-rule="evenodd" clip-rule="evenodd" d="M735.877 25.2325L1196.98 291.505C1253.65 324.145 1288.86 384.271 1288.86 450.41V982.955C1288.86 1048.23 1253.65 1109.22 1196.98 1141.86L735.877 1408.13C679.205 1440.77 609.653 1440.77 552.981 1408.13L91.8773 1141.86C35.2053 1108.36 0 1047.38 0 982.096V449.551C0 384.271 35.2053 323.286 91.8773 290.646L552.981 24.3736C608.795 -8.26629 679.205 -8.26629 735.877 25.2325ZM628.544 156.651C633.696 154.074 639.707 152.356 645.717 152.356V641.095H474.843V545.752C474.843 539.74 468.832 536.304 463.68 538.881L154.56 716.682L463.68 893.624C468.832 896.201 474.843 892.765 474.843 886.753V790.551H645.717V1279.29C639.707 1279.29 633.696 1278.43 628.544 1275L167.44 1008.72C157.995 1003.57 151.984 993.262 151.984 982.096V449.551C151.984 438.384 157.995 428.936 167.44 422.923L628.544 156.651ZM645.717 790.551H815.733V887.612C815.733 893.624 821.744 897.06 826.896 894.483L1135.16 717.541L827.755 539.74C822.603 537.163 816.592 540.599 816.592 546.611V641.954H645.717V790.551Z" fill="#3A3AFF"/>
</svg>