<svg width="673" height="167" viewBox="0 0 673 167" fill="none" xmlns="http://www.w3.org/2000/svg">
<path fill-rule="evenodd" clip-rule="evenodd" d="M85.6594 2.85627L139.341 33.85C145.937 37.6584 150 44.6965 150 52.3132V114.301C150 121.917 145.937 128.956 139.341 132.764L85.6594 163.758C79.0633 167.566 70.9366 167.566 64.3406 163.758L10.6594 132.764C4.06334 128.956 0 121.917 0 114.301V52.3132C0 44.6965 4.06336 37.6584 10.6594 33.85L64.3406 2.85627C70.9367 -0.952096 79.0634 -0.952084 85.6594 2.85627ZM73.2234 18.2423C73.8262 17.8943 74.5056 17.7371 75.1776 17.7707V74.654H55.2722V63.5215C55.2722 62.8387 54.5339 62.4112 53.9417 62.751L17.972 83.3958L53.9417 104.04C54.5339 104.38 55.2722 103.953 55.2722 103.27V91.9591H75.1776V148.843C74.5056 148.877 73.8262 148.72 73.2234 148.372L19.5423 117.378C18.4429 116.743 17.7657 115.57 17.7657 114.301V52.3132C17.7657 51.0438 18.4429 49.8707 19.5423 49.236L73.2234 18.2423ZM75.1776 91.9591H95.0212V103.268C95.0212 103.951 95.7605 104.378 96.3527 104.037L132.206 83.3958L96.3527 62.754C95.7605 62.4131 95.0212 62.8405 95.0212 63.5239V74.654H75.1776V91.9591Z" fill="#3A3AFF"/>
<path d="M169.284 118V48.1818H186.159V76.2045H213.67V48.1818H230.511V118H213.67V89.9432H186.159V118H169.284ZM241.097 118V48.1818H269.938C275.165 48.1818 279.676 49.125 283.472 51.0114C287.29 52.875 290.233 55.5568 292.301 59.0568C294.369 62.5341 295.403 66.6591 295.403 71.4318C295.403 76.2727 294.347 80.3864 292.233 83.7727C290.119 87.1364 287.119 89.7045 283.233 91.4773C279.347 93.2273 274.744 94.1023 269.426 94.1023H251.188V80.8068H266.29C268.835 80.8068 270.96 80.4773 272.665 79.8182C274.392 79.1364 275.699 78.1136 276.585 76.75C277.472 75.3636 277.915 73.5909 277.915 71.4318C277.915 69.2727 277.472 67.4886 276.585 66.0795C275.699 64.6477 274.392 63.5795 272.665 62.875C270.938 62.1477 268.813 61.7841 266.29 61.7841H257.972V118H241.097ZM280.403 86.0909L297.79 118H279.381L262.335 86.0909H280.403ZM341.136 48.1818L356.75 99.3182H357.33L372.943 48.1818H391.83L368.273 118H345.807L322.25 48.1818H341.136ZM416.222 48.1818V118H399.347V48.1818H416.222ZM464.554 69.1136C464.327 66.6136 463.315 64.6705 461.52 63.2841C459.747 61.875 457.213 61.1705 453.918 61.1705C451.736 61.1705 449.918 61.4545 448.463 62.0227C447.009 62.5909 445.918 63.375 445.19 64.375C444.463 65.3523 444.088 66.4773 444.065 67.75C444.02 68.7955 444.224 69.7159 444.679 70.5114C445.156 71.3068 445.838 72.0114 446.724 72.625C447.634 73.2159 448.724 73.7386 449.997 74.1932C451.27 74.6477 452.702 75.0455 454.293 75.3864L460.293 76.75C463.747 77.5 466.793 78.5 469.429 79.75C472.088 81 474.315 82.4886 476.111 84.2159C477.929 85.9432 479.304 87.9318 480.236 90.1818C481.168 92.4318 481.645 94.9545 481.668 97.75C481.645 102.159 480.531 105.943 478.327 109.102C476.122 112.261 472.952 114.682 468.815 116.364C464.702 118.045 459.736 118.886 453.918 118.886C448.077 118.886 442.986 118.011 438.645 116.261C434.304 114.511 430.929 111.852 428.52 108.284C426.111 104.716 424.872 100.205 424.804 94.75H440.963C441.099 97 441.702 98.875 442.77 100.375C443.838 101.875 445.304 103.011 447.168 103.784C449.054 104.557 451.236 104.943 453.713 104.943C455.986 104.943 457.918 104.636 459.509 104.023C461.122 103.409 462.361 102.557 463.224 101.466C464.088 100.375 464.531 99.125 464.554 97.7159C464.531 96.3977 464.122 95.2727 463.327 94.3409C462.531 93.3864 461.304 92.5682 459.645 91.8864C458.009 91.1818 455.918 90.5341 453.372 89.9432L446.077 88.2386C440.031 86.8523 435.27 84.6136 431.793 81.5227C428.315 78.4091 426.588 74.2045 426.611 68.9091C426.588 64.5909 427.747 60.8068 430.088 57.5568C432.429 54.3068 435.668 51.7727 439.804 49.9545C443.94 48.1364 448.656 47.2273 453.952 47.2273C459.361 47.2273 464.054 48.1477 468.031 49.9886C472.031 51.8068 475.134 54.3636 477.338 57.6591C479.543 60.9545 480.668 64.7727 480.713 69.1136H464.554ZM507.065 48.1818V118H490.19V48.1818H507.065ZM583.557 83.0909C583.557 90.7727 582.08 97.2841 579.125 102.625C576.17 107.966 572.17 112.023 567.125 114.795C562.102 117.568 556.466 118.955 550.216 118.955C543.943 118.955 538.295 117.557 533.273 114.761C528.25 111.966 524.261 107.909 521.307 102.591C518.375 97.25 516.909 90.75 516.909 83.0909C516.909 75.4091 518.375 68.8977 521.307 63.5568C524.261 58.2159 528.25 54.1591 533.273 51.3864C538.295 48.6136 543.943 47.2273 550.216 47.2273C556.466 47.2273 562.102 48.6136 567.125 51.3864C572.17 54.1591 576.17 58.2159 579.125 63.5568C582.08 68.8977 583.557 75.4091 583.557 83.0909ZM566.307 83.0909C566.307 78.5455 565.659 74.7045 564.364 71.5682C563.091 68.4318 561.25 66.0568 558.841 64.4432C556.455 62.8295 553.58 62.0227 550.216 62.0227C546.875 62.0227 544 62.8295 541.591 64.4432C539.182 66.0568 537.33 68.4318 536.034 71.5682C534.761 74.7045 534.125 78.5455 534.125 83.0909C534.125 87.6364 534.761 91.4773 536.034 94.6136C537.33 97.75 539.182 100.125 541.591 101.739C544 103.352 546.875 104.159 550.216 104.159C553.58 104.159 556.455 103.352 558.841 101.739C561.25 100.125 563.091 97.75 564.364 94.6136C565.659 91.4773 566.307 87.6364 566.307 83.0909ZM652.83 48.1818V118H638.511L610.727 77.7045H610.284V118H593.409V48.1818H607.932L635.409 88.4091H635.989V48.1818H652.83Z" fill="#112D5C"/>
</svg>